# xmcd
# 
# Track frame offsets:
#     150
#     19792
#     34838
#     65061
# 
# Disc length: 1243
# 
# Revision: 0
# Processed by: cddbd v1.5.2PL0 Copyright (c) Steve Scherf et al.
# Submitted via: BonkEnc v1.0.15
# 
DISCID=3004d904
DTITLE=Beyoncé - Halo (Premium Edition)
DYEAR=2009
DGENRE=Pop
TTITLE0=Halo (Album Version)
TTITLE1=Diva (Album Version)
TTITLE2=Halo (Dave Audé Remix - Radio Edit)
TTITLE3=Datentrack (Halo - Video)
EXTD=
EXTT0=
EXTT1=
EXTT2=
EXTT3=
PLAYORDER=
